PathFileType	4	(X/Y/Z)	Patient4_TMGait_0pt8_01_left_05.trc.trc
DataRate	CameraRate	NumFrames	NumMarkers	Units	OrigDataRate	OrigDataStartFrame	OrigNumFrames
88.050314465409	88.050314465409	4	33	mm	88.050314465409	36	       141
Frame#	Time	Sacral			L.Shoulder			Chest			R.Shoulder			Neck			R.ASIS			L.ASIS			R.Thigh.Superior			R.Thigh.Lateral			R.Thigh.Inferior			R.Patella			L.Thigh.Superior			L.Thigh.Lateral			L.Thigh.Inferior			L.Patella			L.Shank.Superior			L.Shank.Lateral			L.Shank.Inferior			R.Shank.Superior			R.Shank.Lateral			R.Shank.Inferior			R.Heel			R.Midfoot.Superior			R.Midfoot.Lateral			R.Toe			L.Heel			L.Midfoot.Lateral			L.Midfoot.Superior			L.Toe			L.Elbow			L.Wrist			R.Elbow			R.Wrist			
		X1	Y1	Z1	X2	Y2	Z2	X3	Y3	Z3	X4	Y4	Z4	X5	Y5	Z5	X6	Y6	Z6	X7	Y7	Z7	X8	Y8	Z8	X9	Y9	Z9	X10	Y10	Z10	X11	Y11	Z11	X12	Y12	Z12	X13	Y13	Z13	X14	Y14	Z14	X15	Y15	Z15	X16	Y16	Z16	X17	Y17	Z17	X18	Y18	Z18	X19	Y19	Z19	X20	Y20	Z20	X21	Y21	Z21	X22	Y22	Z22	X23	Y23	Z23	X24	Y24	Z24	X25	Y25	Z25	X26	Y26	Z26	X27	Y27	Z27	X28	Y28	Z28	X29	Y29	Z29	X30	Y30	Z30	X31	Y31	Z31	X32	Y32	Z32	X33	Y33	Z33	

36	5.127500000000	826.261307216965	991.702392287480	483.245770998070	965.759472993528	1416.901509135272	292.476317483035	1087.758375673149	1353.119286951108	442.818732893768	1020.359252785563	1427.404138011169	623.606386589312	971.063828932043	1480.470324015196	448.675634063753	1056.824486390817	923.469526294073	590.046286386852	1034.198524220051	945.785254934434	315.203632545586	1053.190594523655	708.801699924188	568.861261723032	948.525561958199	616.184647777759	631.542168979002	1014.057514091551	544.900556191088	557.766856982727	988.259053947646	443.986793196145	572.258527349616	1114.299547510186	767.132978770023	352.292455693470	1057.835103610787	633.832193675689	285.237999895556	1159.774658660241	575.465722350583	346.608946318315	1175.768876794355	503.924751412610	352.844921185749	1156.206367557538	426.888368725246	347.158906753883	1078.448811250986	302.491721468305	298.909408412577	1145.536633094029	198.631583387199	369.328900227659	915.328102847157	377.910242718720	578.593656628854	800.551341208745	325.873784961359	640.797756999736	792.984166883081	218.555812542237	585.722885442776	596.581610243219	120.600514717513	557.549292609854	773.999291916203	109.270726815125	597.433752912138	668.885887504587	79.440168888111	630.500752186140	863.987708718504	33.640703166330	623.566275232435	1032.344172511967	38.317643173092	416.772780403311	1104.409570273687	35.949085818288	333.966167426156	1187.088140130733	98.419725567630	358.752470830582	1315.024999401565	49.340836842368	328.613662691477	844.286249784745	1081.562352580044	211.424074495688	806.864621297787	825.257223220931	243.796913925325	1164.988870734827	1116.405832040452	731.806308332232	1373.250559747122	1220.386549287861	639.257716169830	
37	5.138857142857	826.967956980723	993.350241950663	479.803213032247	967.451968049455	1418.943339424119	290.124551041482	1088.378037097123	1355.175068849298	441.304717751783	1019.621954169138	1429.420443916382	621.569207373178	971.366613120178	1482.345097703719	446.391664490967	1056.911614612248	925.327630447747	587.460712512931	1035.627682139613	947.908950297187	312.918552654650	1057.595084247419	711.005660880727	567.064695610457	955.176223198413	616.469822360241	629.736237096334	1023.280351638800	545.886589051466	556.983452393443	998.313501388443	443.232583907023	572.926338356313	1114.158461141506	766.861454968931	348.568866916940	1054.748881816922	634.155481148184	283.151496961879	1156.227435639686	574.585839094314	344.040532220783	1171.322814727948	503.204523447808	350.913683269179	1150.931959547401	426.328690411332	345.481470103916	1071.647571513345	302.638482388456	297.891711288029	1137.760169754115	198.366944175787	368.542124171817	922.711974221839	378.513576634014	578.470399160669	805.285787782461	331.373941557154	639.641967926763	794.806957683967	223.839413523727	585.584418411550	595.196410061315	135.070789872621	556.200574872031	771.540621012572	113.600441382747	597.507170487396	664.532885878926	89.670027860253	629.500559379507	855.794267221127	32.892035416628	623.666583122871	1023.361285088751	38.308576792077	416.562216296570	1095.456406681716	35.991131654065	333.781852593460	1178.041787002671	98.494951096118	358.560176576318	1305.993565384428	49.680980393279	328.540668066225	851.764041620037	1081.220676026093	207.548683295491	820.384446553143	823.939080262672	237.396100239993	1156.309226373552	1114.304391149675	731.076773659611	1368.322533645272	1210.804641050812	639.308598660495	
38	5.150214285714	827.474924104109	995.000057832725	476.492005679089	969.332599928778	1420.996901647686	287.770595460368	1088.941113282179	1357.208434349795	439.948180857411	1018.625873224915	1431.439849928622	619.580699686883	971.637077704435	1484.226920753679	444.097939686222	1056.758705490008	927.207729102324	585.037177576732	1036.783286451565	949.994369802156	310.832304656815	1062.312156794292	713.451269596960	565.532385418272	962.301106588818	616.871006133695	628.165539697593	1033.065169784904	547.157142514053	556.452340325934	1008.990500458926	442.873744861899	573.602032563144	1113.426604854858	766.244096603639	344.668028959892	1050.790707898197	634.345516339519	281.113064292300	1151.858628089814	573.540687290637	341.388411850515	1166.021360790118	502.396814549095	348.798240881364	1144.868049633213	425.763338252194	343.654409094264	1064.137502669782	302.672812054580	296.933236827550	1129.625578361506	198.120911684944	367.650313879870	930.920709539038	379.369149699944	578.279301639594	811.008449512393	337.170511584052	638.338281717486	797.524563709153	229.622132236633	585.179667250679	595.180097398903	150.297170653045	554.301174050048	769.916839484310	118.814678353826	597.304912895633	661.240045095790	100.901422739175	628.092299851614	848.284095825831	32.387462924822	623.761348037750	1014.337944731870	38.296342572363	416.398708941538	1086.440009521730	35.989999882734	333.623231291649	1168.962098511602	98.536116000834	358.325175811700	1296.933120646380	49.900177605279	328.429598119312	859.551640886620	1081.025080333393	203.482268732946	834.831200135242	822.857327682297	230.785657525759	1146.823554607149	1112.305626796514	730.402025023272	1362.871832229588	1200.015634030355	639.492539374397	
39	5.161571428571	827.756999682324	996.595731453172	473.345731425583	971.377208357442	1422.984091703136	285.443557660569	1089.444554429485	1359.143158700634	438.759923144813	1017.400843512748	1433.387169883257	617.667035476446	971.884965471423	1486.058846228648	441.821162300325	1056.377540346396	929.033382419992	582.791238992778	1037.633539786910	951.997274769263	308.927695898522	1067.234699131884	716.118965051395	564.251261101892	969.767026468010	617.432274510466	626.841353119675	1043.214715934961	548.745832686519	556.153039391573	1020.132330033180	442.953208879655	574.253755179538	1112.139721762169	765.369929533630	340.687196121857	1046.178790554861	634.481448841885	279.110643284857	1146.830467943085	572.413355032535	338.707827447005	1160.021848168732	501.548150041598	346.539781501595	1138.182056687026	425.213510002577	341.732035525292	1056.114530361097	302.631267963086	295.975832035037	1121.218492385677	197.894504688026	366.684667665626	939.821780120643	380.493917472907	578.003929206777	817.627530046552	343.163303183840	636.894102491524	801.116089758178	235.800765679669	584.487483457076	596.565443827970	165.871243582412	551.874112839227	769.224131728764	124.837468167229	596.791805798952	659.156726451020	112.834474176244	626.268401888065	841.739889633694	32.301723997209	623.789019626846	1005.270129123043	38.290862267051	416.261686064958	1077.364056630950	35.949866885734	333.478462658977	1159.865901478263	98.529181830434	358.051589671272	1287.851705552482	49.968712440071	328.288345324315	867.642321187879	1080.911314298674	199.226018770983	850.141854335590	821.993888691157	223.999148279013	1136.602273697737	1110.380745670296	729.784130092763	1356.785174375876	1188.094283591765	639.821239323908	
